<?xml version="1.0" encoding="utf-8"?>
<!-- Generator: Adobe Illustrator 24.2.3, SVG Export Plug-In . SVG Version: 6.00 Build 0)  -->
<svg version="1.1" id="图层_1" xmlns="http://www.w3.org/2000/svg" xmlns:xlink="http://www.w3.org/1999/xlink" x="0px" y="0px"
	 viewBox="0 0 153.01 145.53" style="enable-background:new 0 0 153.01 145.53;" xml:space="preserve">
<style type="text/css">
	.st0{fill:#FEFEF5;}
</style>
<path class="st0" d="M117.23,120.83c13.58-21.8,3.36-35.33-9.33-51.24C91.92,49.54,91.18,35.13,97.22,24.2
	c3.49-6.31,9.07-9.4,16.15-9.56c9.33-0.21,15.59,3.25,19.19,11.47c3,6.85,2.9,14.04,2.28,17.92c-8.55-26.45-23.65-17.75-23.65-17.75
	c-13.47,10.03-1.14,26.66,9.05,41.67c6.02,8.86,12.08,19.91,12.87,27.41C134.62,109.54,123.31,117.57,117.23,120.83z"/>
<path class="st0" d="M36.88,96.78c12.03,0.48,20.8-1.12,29.27-2.67c7.66-1.4,14.89-2.72,24.27-2.34c11.02,0.44,20.99,3.91,27.3,6.68
	l0,0c-5.51-5.58-16.24-14.77-26.83-15.19c-10.99-0.44-19.35,1.09-27.44,2.56c-8.06,1.47-15.68,2.86-26.1,2.44
	c-12.28-0.49-21.95-6.31-27.29-10.39l0,0C12.61,84.68,25.63,96.32,36.88,96.78z"/>
<path class="st0" d="M26.83,81.01c12.03,0.48,20.8-1.12,29.27-2.67c7.66-1.4,14.89-2.72,24.27-2.34c11.02,0.44,20.99,3.91,27.3,6.68
	l0,0c-5.51-5.58-16.24-14.77-26.83-15.19c-10.99-0.44-19.35,1.09-27.44,2.56c-8.06,1.47-15.68,2.86-26.1,2.44
	C15.02,72,5.35,66.19,0,62.1l0,0.04C2.56,68.95,15.57,80.56,26.83,81.01z"/>
<path class="st0" d="M25.94,94.94c0,0,3.25,16.17,27.01,26.47s54.7,2.26,62.56-17.58c-12.95-5.97-26.02-5.12-41.67-1.64
	c8.47,2.52,15.84,2.53,23.01,7.37C90.61,117.99,53.51,126.48,25.94,94.94z"/>
</svg>
